<?xml version="1.0" standalone="no"?>
<!DOCTYPE svg PUBLIC "-//W3C//DTD SVG 20010904//EN"
 "http://www.w3.org/TR/2001/REC-SVG-20010904/DTD/svg10.dtd">
<svg version="1.0" xmlns="http://www.w3.org/2000/svg"
 width="649.000000pt" height="649.000000pt" viewBox="0 0 649.000000 649.000000"
 preserveAspectRatio="xMidYMid meet">
<metadata>
Created by potrace 1.11, written by Peter Selinger 2001-2013
</metadata>
<g transform="translate(0.000000,649.000000) scale(0.100000,-0.100000)"
fill="#000000" stroke="none">
<path d="M5149 5299 c-371 -440 -675 -804 -677 -809 -5 -15 76 -106 118 -134
21 -14 41 -35 45 -46 4 -12 10 -20 15 -18 20 8 1347 1594 1341 1604 -3 6 -42
54 -87 107 l-81 96 -674 -800z"/>
<path d="M2565 4670 c-701 -46 -1484 -245 -2005 -511 -180 -91 -323 -192 -289
-203 19 -7 364 -51 584 -75 558 -62 1257 -106 1774 -113 l184 -2 71 94 c88
118 262 299 367 382 174 138 382 243 564 284 108 25 302 25 408 0 43 -10 80
-16 81 -14 1 1 12 17 24 35 l22 31 -27 6 c-92 19 -512 59 -798 75 -245 15
-808 21 -960 11z"/>
<path d="M4853 4303 c-76 -90 -137 -170 -137 -176 1 -7 13 -52 27 -102 14 -49
31 -115 37 -145 l10 -55 48 3 c270 17 1066 93 1361 129 l53 6 -23 19 c-218
171 -650 346 -1140 462 l-98 24 -138 -165z"/>
<path d="M3895 4373 c-213 -33 -443 -155 -651 -343 -70 -63 -191 -193 -226
-243 l-22 -30 268 6 268 6 71 70 c208 201 474 389 649 457 l72 29 -75 23 c-58
19 -100 25 -199 27 -69 2 -138 1 -155 -2z"/>
<path d="M4390 4173 c-198 -71 -344 -159 -553 -332 -43 -35 -76 -65 -75 -66 2
-2 91 1 198 6 107 4 228 8 268 9 l73 0 20 48 c30 69 109 305 109 325 0 17 -12
20 -40 10z"/>
<path d="M4516 3956 c-27 -81 -47 -148 -45 -149 2 -2 42 0 89 3 84 5 85 5 82
30 -5 45 -43 184 -60 224 l-17 39 -49 -147z"/>
<path d="M5990 3744 c-984 -113 -1916 -166 -2915 -166 -966 0 -1697 43 -2555
153 -129 16 -257 33 -283 36 l-49 6 7 -74 c55 -617 285 -1140 705 -1607 415
-461 1033 -806 1675 -936 254 -51 361 -61 665 -61 309 0 401 8 647 56 742 144
1405 544 1847 1113 321 413 508 881 556 1391 12 135 12 125 -2 124 -7 -1 -141
-17 -298 -35z"/>
<path d="M4305 1029 c-59 -18 -302 -69 -420 -88 -242 -40 -324 -46 -665 -46
-394 0 -504 13 -908 102 l-22 5 0 -239 0 -240 143 -32 c456 -101 890 -117
1394 -51 176 23 497 80 515 91 10 6 14 64 16 259 4 271 7 257 -53 239z"/>
</g>
</svg>
