<svg xmlns="http://www.w3.org/2000/svg" width="793.617" height="793.617" viewBox="0 0 209.978 209.978"><g stroke-width=".766" stroke="#fff" fill="#4a148c"><path d="M47.17 102.74c3.361-6.664 30.494-16.838 54.53-16.98 40.618-.238 65.75 9.11 71.81 15.548 6.059 6.438-28.14 14.328-62.51 12.693-27.84-1.075-50.734-3.23-63.83-11.26z" fill="#240c48" stroke-width="3.831" stroke-linejoin="round" transform="matrix(1.30468 0 0 1.3054 -38.53 -45.272)"/><g stroke-width=".897" stroke-linejoin="round"><path d="M62.8 37.807l-5.222-5.223L85.531 4.632l5.222 5.222z" fill="#701ed3" stroke-width="2.548" transform="matrix(1.37592 0 0 1.63414 56.433 21.005)"/><path d="M61.401 35.985c14.12 22.862-22.546 46.38-34.026 37.737C8.687 62.25 38.31 21.502 61.401 35.985z" fill="none" stroke-width="2.692" transform="matrix(1.37592 0 0 1.63414 56.433 21.005)"/><path d="M60.631 35.959c-2.56 13.593-25.76 42.41-34.026 37.737-8.542-7.07 19.596-37.63 34.026-37.737z" fill="none" stroke-width="2.692" transform="matrix(1.37592 0 0 1.63414 56.433 21.005)"/></g><g fill="#3d0f72" stroke-width="3.831"><path d="M-136.908 153.237c17.933 5.445 33.53 4.605 45.917.839v13.738c-17.935 5.032-31.95 2.81-45.646 0z" transform="matrix(-1.30468 0 0 1.3054 -40.543 -38.063)" stroke-linejoin="bevel"/><path d="M48.356 98.213c0 32.383 28.607 58.634 63.896 58.634s63.896-26.251 63.896-58.634c-45.085 5.57-87.933 6.132-127.792 0z" stroke-linejoin="round" transform="matrix(1.30468 0 0 1.3054 -40.543 -38.063)"/></g></g></svg>
